<svg xmlns="http://www.w3.org/2000/svg" xmlns:xlink="http://www.w3.org/1999/xlink" aria-hidden="true"
  role="img" width="32" height="32" preserveAspectRatio="xMidYMid meet" viewBox="0 0 200 200">
  <style>
    path {
      fill: #000;
    }
    @media (prefers-color-scheme: dark) {
      path {
        fill: #fff;
      }
    }
  </style>
  <path transform="translate(100 100)" d="M44,-76.2C58.1,-68.2,71.1,-58.4,78.4,-45.4C85.7,-32.4,87.4,-16.2,86.1,-0.7C84.9,14.8,80.8,29.5,74,43.5C67.3,57.5,57.8,70.6,45,77.9C32.3,85.2,16.1,86.6,-0.1,86.8C-16.4,87.1,-32.8,86.2,-46.7,79.5C-60.5,72.9,-71.8,60.4,-78.9,46.2C-86,32,-88.9,16,-88.3,0.3C-87.7,-15.3,-83.7,-30.7,-76.2,-44.2C-68.7,-57.7,-57.8,-69.5,-44.6,-77.9C-31.3,-86.4,-15.6,-91.5,-0.3,-90.9C15,-90.4,30,-84.2,44,-76.2Z"/>
</svg>