<svg xmlns="http://www.w3.org/2000/svg" xmlns:xlink="http://www.w3.org/1999/xlink" aria-hidden="true"
  role="img" width="32" height="32" preserveAspectRatio="xMidYMid meet" viewBox="0 0 200 200">
  <style>
    path {
      fill: #000;
    }
    @media (prefers-color-scheme: dark) {
      path {
        fill: #fff;
      }
    }
  </style>
  <path transform="translate(100 100)" d="M44.2,-76C58.5,-68.4,72.1,-58.9,80.1,-45.9C88.2,-33,90.7,-16.5,90.2,-0.3C89.7,15.9,86.2,31.8,78,44.5C69.8,57.2,56.9,66.6,43.1,73.7C29.3,80.7,14.6,85.3,-0.7,86.5C-15.9,87.6,-31.9,85.2,-44.9,77.7C-58,70.3,-68.1,57.7,-75.7,43.9C-83.3,30.1,-88.3,15.1,-88.5,-0.1C-88.7,-15.3,-84,-30.6,-75.9,-43.4C-67.7,-56.2,-56,-66.5,-42.8,-74.7C-29.6,-82.9,-14.8,-88.9,0.1,-89C15,-89.2,30,-83.5,44.2,-76Z"/>
</svg>